<svg width="219" height="80" viewBox="0 0 219 80" fill="none" xmlns="http://www.w3.org/2000/svg">
<path d="M82.2208 29.2158V51.0155H77.6057V29.2158H82.2208Z" fill="#FE6F39"/>
<path d="M104.713 29.2158V51.0155H101.202L91.1778 37.6928V51.0155H86.5628V29.2158H90.0737L100.098 42.5154V29.2158H104.713Z" fill="#FE6F39"/>
<path d="M113.67 33.3213V38.4908H122.751V42.5963H113.67V51.004H109.055V29.2158H123.024V33.3213H113.67Z" fill="#FE6F39"/>
<path d="M131.013 29.2158V51.0155H126.398V29.2158H131.013Z" fill="#FE6F39"/>
<path d="M153.493 29.2158V51.0155H149.982L139.958 37.6928V51.0155H135.343V29.2158H138.854L148.878 42.5154V29.2158H153.493Z" fill="#FE6F39"/>
<path d="M172.3 46.8984V51.004H157.835V29.2158H172.126V33.3213H162.437V37.9588H171.295V42.0065H162.437V46.8984H172.3Z" fill="#FE6F39"/>
<path d="M188.105 51.004L183.565 43.9031L179.024 51.004H173.813L180.959 39.8207L174.173 29.2042H179.384L183.565 35.7383L187.745 29.2042H192.956L186.17 39.7861L193.353 50.9924H188.105V51.004Z" fill="#FE6F39"/>
<path d="M52.3349 33.5642V56H24.5333V24H32.2126V29.1926H29.8679V51.0271H47.0004V33.5642H52.3349Z" fill="#FE6F39"/>
<path d="M63.6615 24V56H55.9823V51.0271H58.327V28.9729H41.182V46.4359H35.8475V24H63.6615Z" fill="#FE6F39"/>
</svg>
